<?xml version="1.0" encoding="UTF-8" standalone="no"?>
<!-- Created with Inkscape (http://www.inkscape.org/) -->

<svg
   xmlns:dc="http://purl.org/dc/elements/1.1/"
   xmlns:cc="http://creativecommons.org/ns#"
   xmlns:rdf="http://www.w3.org/1999/02/22-rdf-syntax-ns#"
   xmlns:svg="http://www.w3.org/2000/svg"
   xmlns="http://www.w3.org/2000/svg"
   xmlns:sodipodi="http://sodipodi.sourceforge.net/DTD/sodipodi-0.dtd"
   xmlns:inkscape="http://www.inkscape.org/namespaces/inkscape"
   id="svg3004"
   version="1.1"
   inkscape:version="0.48.4 r9939"
   width="288.76218"
   height="180.2352"
   xml:space="preserve"
   sodipodi:docname="logo.svg"
   inkscape:export-filename="/home/arno/dev/git deliver/logo/logo.png"
   inkscape:export-xdpi="90"
   inkscape:export-ydpi="90"><metadata
     id="metadata3010"><rdf:RDF><cc:Work
         rdf:about=""><dc:format>image/svg+xml</dc:format><dc:type
           rdf:resource="http://purl.org/dc/dcmitype/StillImage" /><dc:title /></cc:Work></rdf:RDF></metadata><defs
     id="defs3008"><clipPath
       clipPathUnits="userSpaceOnUse"
       id="clipPath3020"><path
         d="m 0,0 2183.73,0 0,912 L 0,912 0,0 z"
         id="path3022"
         inkscape:connector-curvature="0" /></clipPath></defs><sodipodi:namedview
     pagecolor="#ffffff"
     bordercolor="#666666"
     borderopacity="1"
     objecttolerance="10"
     gridtolerance="10"
     guidetolerance="10"
     inkscape:pageopacity="0"
     inkscape:pageshadow="2"
     inkscape:window-width="561"
     inkscape:window-height="430"
     id="namedview3006"
     showgrid="false"
     inkscape:zoom="1.5374562"
     inkscape:cx="221.21438"
     inkscape:cy="91.966888"
     inkscape:window-x="142"
     inkscape:window-y="628"
     inkscape:window-maximized="0"
     inkscape:current-layer="g3012"
     fit-margin-top="20"
     fit-margin-left="20"
     fit-margin-right="20"
     fit-margin-bottom="20" /><g
     id="g3012"
     inkscape:groupmode="layer"
     inkscape:label="ink_ext_XXXXXX"
     transform="matrix(1.25,0,0,-1.25,-0.58337399,146.21632)"><g
       id="g3047"
       transform="matrix(1.0283494,0,0,1.0224532,-95.38378,7.714892)"
       style="fill:#362701;fill-opacity:1"><path
         d="m 130.873,60.1652 c -4.788,0 -8.354,-2.3511 -8.354,-8.0093 0,-4.2633 2.35,-7.2227 8.096,-7.2227 4.87,0 8.178,2.8695 8.178,7.3988 0,5.1328 -2.96,7.8332 -7.92,7.8332 z M 121.3,20.2133 c -1.133,-1.3906 -2.262,-2.868 -2.262,-4.6117 0,-3.4786 4.436,-4.5254 10.53,-4.5254 5.048,0 11.924,0.3535 11.924,5.0468 0,2.7895 -3.308,2.9622 -7.488,3.2243 l -12.704,0.866 z m 25.761,39.689 c 1.564,-2.0023 3.22,-4.7878 3.22,-8.791 0,-9.6601 -7.572,-15.3164 -18.535,-15.3164 -2.788,0 -5.312,0.3473 -6.877,0.7817 l -2.873,-4.6118 8.528,-0.521 c 15.058,-0.9594 23.932,-1.3954 23.932,-12.9661 0,-10.0109 -8.788,-15.6652 -23.932,-15.6652 -15.752,0 -21.757,4.00391 -21.757,10.8781 0,3.918 1.741,6.002 4.787,8.8782 -2.873,1.2144 -3.829,3.389 -3.829,5.7398 0,1.916 0.956,3.6562 2.525,5.3109 1.566,1.652 3.306,3.3078 5.395,5.2219 -4.264,2.0883 -7.485,6.6141 -7.485,13.0555 0,10.0074 6.615,16.8804 19.928,16.8804 3.743,0 6.007,-0.3445 8.009,-0.8699 l 16.972,0 0,-7.3957 -8.008,-0.6094"
         style="fill:#362701;fill-opacity:1;fill-rule:nonzero;stroke:none"
         id="path3024"
         inkscape:connector-curvature="0" /><path
         d="m 170.38,75.7168 c -4.962,0 -7.833,2.8746 -7.833,7.8371 0,4.9563 2.871,7.6563 7.833,7.6563 5.048,0 7.92,-2.7 7.92,-7.6563 0,-4.9625 -2.872,-7.8371 -7.92,-7.8371 z m -11.229,-52.3012 0,6.8719 4.44,0.6074 c 1.219,0.1766 1.392,0.4356 1.392,1.7442 l 0,25.5867 c 0,0.9554 -0.26,1.5672 -1.133,1.8262 l -4.699,1.655 0.957,7.0469 18.017,0 0,-36.1148 c 0,-1.395 0.084,-1.5676 1.393,-1.7442 l 4.439,-0.6074 0,-6.8719 -24.806,0"
         style="fill:#362701;fill-opacity:1;fill-rule:nonzero;stroke:none"
         id="path3026"
         inkscape:connector-curvature="0" /><path
         d="m 218.373,26.7895 c -3.744,-1.8254 -9.226,-3.4793 -14.189,-3.4793 -10.356,0 -14.271,4.1734 -14.271,14.0121 l 0,22.8004 c 0,0.5211 0,0.8707 -0.699,0.8707 l -6.091,0 0,7.7453 c 7.661,0.8726 10.705,4.7027 11.662,14.1886 l 8.269,0 0,-12.3625 c 0,-0.607 0,-0.8699 0.697,-0.8699 l 12.27,0 0,-8.7015 -12.967,0 0,-20.7989 c 0,-5.1355 1.22,-7.1355 5.917,-7.1355 2.44,0 4.961,0.6074 7.05,1.3914 l 2.352,-7.6609"
         style="fill:#362701;fill-opacity:1;fill-rule:nonzero;stroke:none"
         id="path3028"
         inkscape:connector-curvature="0" /></g><path
       inkscape:connector-curvature="0"
       id="path3030"
       style="fill:#f03c2e;fill-opacity:1;fill-rule:nonzero;stroke:none"
       d="m 209.11418,97.752847 -60.97895,-0.0019 c -3.51047,0.0019 -6.35833,-2.846326 -6.35926,-6.359261 l 5.3e-4,-12.662828 16.06275,-3.1e-4 c 1.23667,2.497393 3.79935,4.214789 6.77472,4.214483 2.99236,-0.0019 5.57029,-1.740457 6.79737,-4.260007 l 15.48088,3.16e-4 c 1.22741,2.518005 3.80496,4.261762 6.79833,4.259083 4.1806,6.06e-4 7.5672,-3.385985 7.56726,-7.567284 3.2e-4,-4.182141 -3.38629,-7.568742 -7.56934,-7.569354 -3.14515,9.28e-4 -5.84362,1.922119 -6.98426,4.655137 l -14.43798,2.37e-4 18.99602,-18.997279 c 0.76201,0.257377 1.57979,0.401661 2.42738,0.403491 4.17976,2.33e-4 7.56573,-3.385738 7.5688,-7.568808 -9.2e-4,-4.180317 -3.38904,-7.568429 -7.56728,-7.567284 -4.18336,0.0027 -7.56933,3.38874 -7.5688,7.568819 9.2e-4,1.03224 0.20833,2.020266 0.58453,2.919645 l -19.17295,19.17295 c -0.89855,-0.377051 -1.88289,-0.586309 -2.91974,-0.584468 -3.16538,-9.28e-4 -5.8705,1.941214 -7.00274,4.697502 l -15.83516,0.0019 -9.3e-4,-41.811347 c 8.6e-4,-3.51406 2.84873,-6.361921 6.36165,-6.361634 l 60.97866,0.0018 c 3.51142,-6.04e-4 6.35834,2.84633 6.36019,6.360187 l 5.8e-4,60.694883 c -9.3e-4,3.51293 -2.84962,6.361637 -6.36195,6.36195" /><text
       xml:space="preserve"
       style="font-size:47.01673126px;font-style:italic;font-variant:normal;font-weight:bold;font-stretch:normal;text-align:start;line-height:125%;letter-spacing:0px;word-spacing:0px;writing-mode:lr-tb;text-anchor:start;fill:#362701;fill-opacity:1;stroke:none;font-family:Adelle Basic;-inkscape-font-specification:Adelle Basic Bold Italic"
       x="59.372074"
       y="10.650906"
       id="text3052"
       sodipodi:linespacing="125%"
       transform="scale(1,-1)"><tspan
         sodipodi:role="line"
         id="tspan3054"
         x="59.372074"
         y="10.650906"
         style="font-style:normal;-inkscape-font-specification:Adelle Basic Bold">deliver</tspan></text>
</g></svg>